The Mill and the Cross 2011 R5 XviD - VISUALiSE 


Title: The Mill and the Cross 2011 R5 XviD - VISUALiSE
Format: Xvid
Language: English
Subtitles: No
Imdb: http://www.imdb.com/title/tt1324055/

Plot:
The Mill and the Cross, based on a book by Michael Francis Gibson, 
is a moving-image tribute to the still image, with its ability to 
"wrestle the senseless moment to the ground." The subject is The Way 
to Calvary, the year 1564, the place Flanders.

Sources:
Video: Russians - Many Thanks :D
Audio: Russians - Many Thanks :D

Release Notes:
The Mill and the Cross 2011 R5 XviD - VISUALiSE
Straight Forward rip from the dvd9 :P 
added a few filters etc etc 

Info:
Video
ID                               : 0
Format                           : MPEG-4 Visual
Format profile                   : Advanced Simple@L5
Format settings, BVOP            : 2
Format settings, QPel            : No
Format settings, GMC             : No warppoints
Format settings, Matrix          : Default (H.263)
Codec ID                         : XVID
Codec ID/Hint                    : XviD
Duration                         : 1h 31mn
Bit rate                         : 1 379 Kbps
Width                            : 702 pixels
Height                           : 402 pixels
Display aspect ratio             : 16:9
Frame rate                       : 29.970 fps
Color space                      : YUV
Chroma subsampling               : 4:2:0
Bit depth                        : 8 bits
Scan type                        : Progressive
Compression mode                 : Lossy
Bits/(Pixel*Frame)               : 0.163
Stream size                      : 903 MiB (91%)
Writing library                  : XviD 1.2.1 (UTC 2008-12-04)

Audio:
ID                               : 1
Format                           : MPEG Audio
Format version                   : Version 1
Format profile                   : Layer 3
Codec ID                         : 55
Codec ID/Hint                    : MP3
Duration                         : 1h 31mn
Bit rate mode                    : Constant
Bit rate                         : 128 Kbps
Channel(s)                       : 2 channels
Sampling rate                    : 48.0 KHz
Compression mode                 : Lossy
Delay relative to video          : 33ms
Stream size                      : 83.8 MiB (8%)
Alignment                        : Aligned on interleaves
Interleave, duration             : 24 ms (0.72 video frame)
Interleave, preload duration     : 504 ms


Poster:

 
http://i.imgur.com/8JcBr.jpg


Screens:

 
http://i.imgur.com/vL5Hj.png
 
http://i.imgur.com/jPlCu.png
 
http://i.imgur.com/0SWSq.png


ENJOY!